<?xml version="1.0" standalone="no"?>
<!DOCTYPE svg PUBLIC "-//W3C//DTD SVG 20010904//EN"
 "http://www.w3.org/TR/2001/REC-SVG-20010904/DTD/svg10.dtd">
<svg version="1.0" xmlns="http://www.w3.org/2000/svg"
 width="1001.000000pt" height="1001.000000pt" viewBox="0 0 1001.000000 1001.000000"
 preserveAspectRatio="xMidYMid meet">
<metadata>
Created by potrace 1.11, written by Peter Selinger 2001-2013
</metadata>
<g transform="translate(0.000000,1001.000000) scale(0.100000,-0.100000)"
fill="#000000" stroke="none">
<path d="M7767 8854 c-1 -1 -47 -4 -102 -8 -111 -7 -358 -41 -420 -58 -22 -5
-51 -12 -65 -15 -58 -10 -244 -67 -360 -110 -447 -167 -867 -458 -1245 -864
-87 -93 -126 -138 -165 -189 -19 -25 -37 -47 -40 -50 -13 -12 -101 -132 -161
-220 -79 -114 -170 -264 -232 -380 l-46 -85 66 -85 c356 -461 634 -1027 778
-1582 23 -87 23 -87 36 -140 7 -34 16 -48 28 -48 29 0 339 57 351 65 4 2 20 6
36 9 108 19 414 131 568 207 450 224 867 562 1192 969 64 80 226 312 259 372
6 9 36 64 69 120 128 225 265 539 339 778 39 125 65 217 72 246 2 11 11 50 20
88 20 87 57 288 69 381 13 102 16 124 22 185 9 106 17 302 15 390 l-1 25 -541
0 c-297 0 -541 -1 -542 -1z"/>
<path d="M1155 7740 c-5 -7 3 -288 9 -350 2 -19 7 -73 11 -120 4 -47 8 -87 10
-90 1 -3 6 -32 9 -65 9 -74 43 -270 55 -313 6 -18 8 -32 6 -32 -3 0 0 -11 5
-26 6 -14 12 -38 15 -53 14 -82 111 -390 160 -511 243 -600 564 -1072 991
-1457 287 -259 642 -483 974 -615 120 -48 345 -118 387 -120 5 0 18 -4 31 -9
21 -8 193 -40 287 -53 69 -10 156 -17 280 -22 65 -3 121 -7 123 -9 3 -2 5
-568 5 -1256 0 -997 2 -1262 13 -1302 22 -85 85 -154 160 -176 41 -12 593 -10
629 2 77 25 146 112 161 202 16 99 7 2820 -10 2960 -3 17 -7 60 -10 96 -4 36
-9 79 -11 95 -3 16 -7 43 -10 59 -2 17 -7 48 -11 70 -26 176 -93 452 -154 630
-22 66 -42 127 -44 136 -4 16 -45 116 -77 186 -10 23 -19 45 -19 48 0 8 -158
325 -169 339 -5 6 -23 38 -41 71 -49 89 -195 307 -279 415 -364 468 -840 840
-1347 1053 -112 47 -294 112 -344 122 -8 2 -42 10 -75 18 -62 16 -71 18 -165
36 -62 12 -93 17 -165 26 -28 3 -64 9 -80 11 -49 9 -1305 12 -1310 4z"/>
</g>
</svg>
