<svg version="1.1" xmlns="http://www.w3.org/2000/svg" 
     viewBox="0 0 100 100">
	<path d="M88.6,15.5c0.5,0.7,0.8,1.5,0.8,2.3c0,12.9-3.2,24.9-9.7,36C73.3,64.5,64.7,73,54,79.4c-11.1,6.5-23,9.7-36,9.7
		c-0.8,0-1.6-0.3-2.3-0.8c-0.7-0.5-1.1-1.2-1.2-2.2l-3.7-16c-0.2-0.8-0.1-1.6,0.3-2.5c0.4-0.8,1-1.4,1.8-1.7l17.2-7.4
		c0.7-0.3,1.5-0.4,2.3-0.2c0.8,0.2,1.5,0.6,2,1.3l7.5,9.2c6-2.8,11.4-6.5,16.1-11.2c4.7-4.7,8.4-10,11.1-16L60,34.1
		c-0.6-0.5-1-1.2-1.2-1.9s-0.2-1.6,0.2-2.4l7.4-17.2c0.3-0.7,0.9-1.3,1.7-1.7c0.8-0.4,1.6-0.5,2.5-0.3l16,3.7
		C87.3,14.3,88,14.8,88.6,15.5z"/>
</svg>
