<svg version="1.1"
     xmlns="http://www.w3.org/2000/svg" 
	 viewBox="0 0 100 100" >
	<path d="M69,16.8c5.8,3.4,10.5,8.1,13.9,13.9c3.4,5.8,5.1,12.2,5.1,19c0,6.9-1.7,13.2-5.1,19c-3.4,5.8-8.1,10.5-13.9,13.9
		c-5.8,3.4-12.2,5.1-19,5.1c-6.9,0-13.2-1.7-19-5.1c-5.8-3.4-10.5-8.1-13.9-13.9c-3.4-5.8-5.1-12.2-5.1-19c0-6.9,1.7-13.2,5.1-19
		c3.4-5.8,8.1-10.5,13.9-13.9c5.8-3.4,12.2-5.1,19-5.1C56.9,11.7,63.2,13.4,69,16.8z M68,61.2c-0.4-0.9-1-1.4-1.8-1.6
		c-0.9-0.2-1.7,0.1-2.4,0.9c-1.7,2-3.8,3.6-6.2,4.8c-2.4,1.1-4.9,1.7-7.6,1.7c-2.7,0-5.2-0.6-7.6-1.7c-2.4-1.1-4.5-2.7-6.2-4.8
		c-0.7-0.8-1.5-1.1-2.4-0.9c-0.9,0.2-1.5,0.7-1.8,1.6c-0.4,0.9-0.2,1.7,0.4,2.4c2.3,2.7,4.9,4.7,8,6.1c3.1,1.4,6.3,2.1,9.7,2.1
		c3.4,0,6.6-0.7,9.7-2.1c3.1-1.4,5.7-3.5,8-6.1C68.3,62.8,68.4,62,68,61.2z M34.3,38.9c-1,1-1.5,2.1-1.5,3.5c0,1.3,0.5,2.5,1.5,3.5
		c1,1,2.1,1.5,3.5,1.5c1.3,0,2.5-0.5,3.5-1.5c1-1,1.5-2.1,1.5-3.5c0-1.3-0.5-2.5-1.5-3.5c-1-1-2.1-1.5-3.5-1.5
		C36.4,37.5,35.2,37.9,34.3,38.9z M58.8,38.9c-1,1-1.5,2.1-1.5,3.5c0,1.3,0.5,2.5,1.5,3.5c1,1,2.1,1.5,3.5,1.5
		c1.3,0,2.5-0.5,3.5-1.5c1-1,1.5-2.1,1.5-3.5c0-1.3-0.5-2.5-1.5-3.5c-1-1-2.1-1.5-3.5-1.5C61,37.5,59.8,37.9,58.8,38.9z"/>
</svg>
