<svg version="1.1" 
     xmlns="http://www.w3.org/2000/svg" 
	 viewBox="0 0 100 100">
    
	<path d="M89.4,37.4v12.3H10.6V37.4c0-2.1,0.7-3.8,2.2-5.2c1.4-1.4,3.2-2.2,5.2-2.2h12.3v-7.4c0-2.1,0.7-3.8,2.2-5.2
		c1.4-1.4,3.2-2.2,5.2-2.2h24.6c2.1,0,3.8,0.7,5.2,2.2c1.4,1.4,2.2,3.2,2.2,5.2V30H82c2.1,0,3.8,0.7,5.2,2.2
		C88.7,33.6,89.4,35.4,89.4,37.4z M59.9,54.7h29.6v22.2c0,2.1-0.7,3.8-2.2,5.2s-3.2,2.2-5.2,2.2H18c-2.1,0-3.8-0.7-5.2-2.2
		c-1.4-1.4-2.2-3.2-2.2-5.2V54.7h29.6v3.1c0,0.5,0.2,0.9,0.5,1.3c0.4,0.4,0.8,0.5,1.3,0.5h16c0.5,0,0.9-0.2,1.3-0.5
		c0.4-0.4,0.5-0.8,0.5-1.3V54.7z M59.9,25.1H40.1V30h19.7V25.1z"/>
</svg>
