<svg version="1.1" 
     xmlns="http://www.w3.org/2000/svg" 
	 viewBox="0 0 100 100">
	<path d="M90,50.3c0,0.5-0.1,0.9-0.3,1.3l-3.5,4.3c-0.3,0.4-0.7,0.6-1.1,0.6c-0.5,0-0.9-0.1-1.3-0.4L51.1,29.2
		c-0.4-0.3-0.7-0.4-1.1-0.4c-0.4,0-0.7,0.1-1.1,0.4L16.2,56c-0.4,0.3-0.8,0.4-1.3,0.4c-0.5,0-0.8-0.2-1.1-0.6l-3.5-4.3
		c-0.3-0.4-0.4-0.8-0.3-1.3c0-0.5,0.2-0.8,0.5-1.1l35.3-29.1c1.2-1,2.6-1.5,4.2-1.5c1.6,0,3,0.5,4.3,1.5l12.4,10.3V20.3
		c0-0.5,0.2-0.9,0.5-1.2c0.3-0.3,0.7-0.5,1.2-0.5h7.8c0.5,0,0.9,0.2,1.2,0.5c0.3,0.3,0.5,0.7,0.5,1.2v19.3l11.7,9.6
		C89.8,49.5,89.9,49.9,90,50.3z M77.3,56.3L51.1,34.9c-0.4-0.3-0.7-0.4-1.1-0.4c-0.4,0-0.7,0.1-1.1,0.4L22.7,56.3
		c-0.4,0.4-0.6,0.8-0.6,1.4v19.9c0,0.9,0.3,1.7,1,2.4c0.6,0.6,1.4,1,2.4,1h16.1c0.5,0,0.9-0.2,1.2-0.5c0.3-0.3,0.5-0.7,0.5-1.2V63.7
		c0-0.5,0.2-0.9,0.5-1.2c0.3-0.3,0.7-0.5,1.2-0.5h10c0.5,0,0.9,0.2,1.2,0.5c0.3,0.3,0.5,0.7,0.5,1.2v15.6c0,0.5,0.2,0.9,0.5,1.2
		c0.3,0.3,0.7,0.5,1.2,0.5h16.1c0.9,0,1.7-0.3,2.4-1c0.6-0.6,1-1.4,1-2.4V57.7C77.8,57.1,77.6,56.7,77.3,56.3z"/>
</svg>
