<svg version="1.1"
     xmlns="http://www.w3.org/2000/svg"
	 viewBox="0 0 100 100">
	<path d="M37.8,29.7c5.3,3.1,9.5,7.3,12.5,12.5c3.1,5.3,4.6,11.1,4.6,17.3v22.2c0,0.7-0.2,1.3-0.7,1.8c-0.5,0.5-1.1,0.7-1.8,0.7
		h-4.9c-0.7,0-1.3-0.2-1.8-0.7c-0.5-0.5-0.7-1.1-0.7-1.8V59.6c-6.3,0-12-1.5-17.3-4.6c-5.3-3.1-9.5-7.3-12.5-12.5
		c-3.1-5.3-4.6-11.1-4.6-17.3h9.9C26.7,25.1,32.5,26.6,37.8,29.7z M89.4,15.3c0,5.8-1.4,11.3-4.1,16.3c-2.7,5-6.4,9.1-11.2,12.3
		c-4.7,3.2-10,5.1-15.7,5.7c-1.6-6.3-4.7-11.8-9.1-16.6c3.1-5.3,7.3-9.6,12.6-12.9c5.3-3.2,11.2-4.8,17.5-4.8H89.4z"/>
</svg>
