<svg version="1.1" 
     xmlns="http://www.w3.org/2000/svg" 
	 viewBox="0 0 100 100">
	<path d="M55.7,25.1c0.5,0,0.9,0.2,1.2,0.6L74,42.8c0.4,0.3,0.6,0.7,0.6,1.2c0,0.5-0.2,1-0.6,1.4L33.7,85.7l-18.8,3.4
		c-1.2,0.2-2.3-0.2-3.2-1.1c-0.9-0.9-1.3-2-1.1-3.2L14,66l40.3-40.3C54.7,25.3,55.2,25.1,55.7,25.1z M24.2,68.2h-5.5L16.8,78
		l4.9,4.9l9.8-1.8v-5.5h-7.4V68.2z M31.3,63.3c0.6,0,1.1-0.2,1.5-0.6L56.5,39c0.4-0.4,0.6-0.9,0.6-1.5c0-0.6-0.2-1.1-0.6-1.5
		c-0.4-0.4-0.9-0.6-1.5-0.6c-0.6,0-1.1,0.2-1.5,0.6L29.7,59.6c-0.4,0.4-0.6,0.9-0.6,1.5c0,0.6,0.2,1.1,0.6,1.5
		C30.1,63.1,30.6,63.3,31.3,63.3z M89.4,27c0-2.1-0.7-3.8-2.2-5.2L78,12.5c-1.4-1.4-3.2-2.2-5.2-2.2c-2.1,0-3.8,0.7-5.2,2.2
		l-7.1,7.1c-0.4,0.4-0.6,0.9-0.6,1.4c0,0.5,0.2,0.9,0.6,1.2l17.1,17.1c0.3,0.4,0.7,0.6,1.2,0.6s1-0.2,1.4-0.6l7.1-7.1
		C88.7,30.8,89.4,29,89.4,27z"/>
</svg>
