<svg version="1.1" 
     xmlns="http://www.w3.org/2000/svg" 
	 viewBox="0 0 100 100">

    <path d="M60.5-6.6c0.5,0.3,1,0.7,1.3,1.3c0.3,0.5,0.3,1,0.1,1.3C57.7,0,52.9,2.6,47.5,3.8c-5,1-9.9,0.7-14.8-1
		c-4.9-1.7-9-4.4-12.3-8.1c-3.5-4-5.6-8.6-6.4-13.9c-0.1-0.4,0.2-0.8,0.8-1.1c0.6-0.3,1.3-0.4,1.9-0.3c0.6,0.1,0.9,0.4,0.9,0.8
		c1,5,3.1,9.3,6.3,12.8c3,3.3,6.6,5.5,10.8,6.7c4.2,1.2,8.4,1.3,12.7,0.3c4.5-1.1,8.4-3.3,11.8-6.6C59.5-6.9,59.9-6.9,60.5-6.6z
		 M32.4-5.2c4.1,1.9,8.4,2.4,13,1.6c4.6-0.9,8.4-2.9,11.4-6.2c3.3-3.7,4.9-8.2,4.9-13.5c0-4.3-1.2-8.2-3.6-11.6
		c-2.3-3.3-5.4-5.6-9.1-7.1c-3.8-1.5-7.6-1.8-11.5-1.1c-4.3,0.8-7.9,2.9-11,6.3l-0.1-16.6h28c0.7,0,1-0.6,1-1.9c0-1.3-0.3-1.9-1-1.9
		H24c-0.3,0-0.6,0.1-0.9,0.4c-0.3,0.3-0.4,0.6-0.4,0.9v23.4c0,0.7,0.6,1.2,1.8,1.5c0.8,0.2,1.3,0.2,1.6,0c0.3-0.2,0.6-0.4,0.9-0.8
		l0.1-0.1c0.5-0.8,1.4-1.8,2.6-3c1.5-1.6,3.3-2.8,5.3-3.6c2-0.8,4.2-1.3,6.4-1.3c2.2,0,4.3,0.4,6.3,1.3c2,0.8,3.8,2,5.3,3.6
		c1.5,1.6,2.7,3.4,3.6,5.4c0.8,2,1.3,4.1,1.3,6.3c0,2.2-0.4,4.3-1.3,6.3c-0.8,2-2,3.8-3.5,5.3C50.5-9,47.2-7.5,43.4-7
		c-3.8,0.5-7.2-0.3-10.3-2.3l-0.1-7c-0.1-4.4,0-7.2,0.3-8.4c0.3-1.6,0.9-3,2-4.3c1.6-1.8,3.5-2.8,5.9-2.8c2.3,0,4.4,0.8,6.1,2.3
		c1.8,1.5,2.6,3.5,2.6,5.9c0,3.2-1,5.4-3.1,6.6c-1.7,1-4.3,1.5-8,1.5c-0.4-0.2-0.8,0-1.2,0.6c-0.4,0.5-0.6,1.1-0.6,1.8
		c0,0.6,0.2,1,0.6,1.2c2.8,0.8,5.4,0.8,7.8-0.1c2.5-0.9,4.5-2.4,6-4.5c1.5-2.1,2.3-4.5,2.3-7.1c0-3.3-1.2-6.2-3.6-8.6
		c-2.4-2.4-5.3-3.6-8.6-3.6c-3.3,0-6.2,1.1-8.6,3.4c-2.4,2.3-3.6,5-3.7,8.1v11.8c-1.3-1.5-2.3-3.2-3-5c-0.3-0.7-0.6-1.1-0.9-1.3
		c-0.3-0.2-0.8-0.1-1.6,0.2c-0.8,0.3-1.3,0.6-1.4,0.9c-0.1,0.3,0.1,1,0.5,1.9C24.9-10.7,28-7.3,32.4-5.2z M34-49.9
		c2.3-0.6,4.8-0.9,7.5-0.9c3.3,0.1,6.5,0.7,9.6,1.8c3.7,1.3,6.8,3.2,9.5,5.8c0.3,0.3,0.4,0.6,0.2,1.1c-0.2,0.5-0.5,0.9-1,1.2
		c-0.5,0.3-0.8,0.5-0.9,0.5s-0.5-0.2-1.2-0.6c-3-2.3-5.9-4-8.8-5c-5.3-1.8-10.7-1.5-16.4,0.6c-0.5,0.3-0.9,0-1.3-0.8
		c-0.4-0.8-0.5-1.4-0.4-1.9C30.9-48.7,32-49.3,34-49.9z M36.9-20.7l2.4-2.3L37-25.2c-0.3-0.3-0.3-0.8,0.3-1.4
		c0.5-0.6,0.9-0.9,1.3-0.9c0.2,0.1,0.3,0.2,0.5,0.3l2.3,2.3l2.3-2.3c0.2-0.3,0.5-0.3,0.9,0c0.5,0.3,0.8,0.6,1.1,1
		c0.3,0.4,0.3,0.8,0,1L43.2-23l2.1,2.1c0.4,0.5,0.4,1-0.1,1.6c-0.5,0.5-0.9,0.8-1.3,0.8c-0.2-0.1-0.3-0.2-0.5-0.3L41.2-21l-2.4,2.3
		c-0.1,0.2-0.2,0.3-0.4,0.3c-0.3-0.1-0.7-0.3-1.1-0.6l-0.1-0.1c-0.3-0.3-0.5-0.6-0.5-0.9C36.7-20.3,36.8-20.5,36.9-20.7z"/>
	<path d="M90.1,45.2l-1.1,2.1c-1.3,2.4-3.2,4-5.8,4.9c-1.5,0.5-3.4,0.8-5.6,0.8c-3.4,8.3-8.7,14.6-15.7,19
		c-7.1,4.4-15.5,6.6-25.3,6.6c-9.2,0-16.1-2.8-20.8-8.3c-2.3-2.8-3.9-6-4.9-9.9c-0.9-3.7-1.1-7.1-0.6-10.4h54.4c2.3,0,4.3-0.5,6-1.4
		c-1.2-1.8-1.7-4-1.5-6.5c0.2-2.5,0.8-4.7,2-6.5l1.3-1.8l1.8,1.3c3,2.3,4.7,4.9,5.1,7.9c1.6-0.3,3.3-0.3,5.1-0.1
		c1.8,0.2,3.1,0.6,4.1,1.3L90.1,45.2z M24.5,47.9h-8.3v-7.4h8.3V47.9z M34.2,39H26v-7.5h8.3V39z M34.2,47.9H26v-7.4h8.3V47.9z
		 M44,39h-8.3v-7.5H44V39z M44,47.9h-8.3v-7.4H44V47.9z M53.8,30h-8.3v-7.6h8.3V30z M53.8,39h-8.3v-7.5h8.3V39z M53.8,40.5h-8.3v7.4
		h8.3V40.5z M63.5,47.9h-8.3v-7.4h8.3V47.9z"/>
</svg>
