<?xml version="1.0" encoding="utf-8"?>
<!-- Generator: Adobe Illustrator 22.1.0, SVG Export Plug-In . SVG Version: 6.00 Build 0)  -->
<svg version="1.1" id="Слой_1" xmlns="http://www.w3.org/2000/svg" xmlns:xlink="http://www.w3.org/1999/xlink" x="0px" y="0px"
	 width="100px" height="100px" viewBox="0 0 100 100" style="enable-background:new 0 0 100 100;" xml:space="preserve">
<g>
	<path d="M87.9,50.9c1.5,1.8,2.2,3.9,2.2,6.3v7.5c0,1.8-0.4,3.4-1.3,5c-0.9,1.6-2.1,2.8-3.7,3.6v6.4c0,1.4-0.5,2.5-1.5,3.5
		c-1,1-2.2,1.5-3.5,1.5h-5c-1.4,0-2.5-0.5-3.5-1.5c-1-1-1.5-2.2-1.5-3.5v-5H30v5c0,1.4-0.5,2.5-1.5,3.5c-1,1-2.2,1.5-3.5,1.5h-5
		c-1.4,0-2.5-0.5-3.5-1.5c-1-1-1.5-2.2-1.5-3.5v-6.4c-1.6-0.8-2.8-2-3.7-3.6c-0.9-1.6-1.3-3.2-1.3-5v-7.5c0-2.4,0.7-4.5,2.2-6.3
		c1.5-1.8,3.3-2.9,5.6-3.4l3.4-13.3c0.7-2.8,2.2-5.1,4.5-6.9c2.2-1.8,4.8-2.7,7.6-2.7H35v-5c0-1.4,0.5-2.5,1.5-3.5
		c1-1,2.2-1.5,3.5-1.5h20c1.4,0,2.5,0.5,3.5,1.5c1,1,1.5,2.2,1.5,3.5v5h1.7c2.8,0,5.3,0.9,7.6,2.7c2.2,1.8,3.7,4.1,4.5,6.9l3.4,13.3
		C84.5,48,86.4,49.1,87.9,50.9z M28.5,63.3c1-1,1.5-2.2,1.5-3.5c0-1.4-0.5-2.5-1.5-3.5c-1-1-2.2-1.5-3.5-1.5c-1.4,0-2.5,0.5-3.5,1.5
		c-1,1-1.5,2.2-1.5,3.5c0,1.4,0.5,2.5,1.5,3.5c1,1,2.2,1.5,3.5,1.5C26.3,64.8,27.5,64.3,28.5,63.3z M71.7,47.2l-2.7-10.5
		c-0.1-0.5-0.4-1-0.9-1.4c-0.5-0.4-1-0.6-1.4-0.6H33.3c-0.5,0-1,0.2-1.5,0.6c-0.5,0.4-0.8,0.9-0.9,1.6l-2.7,10.3H71.7z M78.6,63.3
		c1-1,1.5-2.2,1.5-3.5c0-1.4-0.5-2.5-1.5-3.5c-1-1-2.2-1.5-3.5-1.5s-2.5,0.5-3.5,1.5c-1,1-1.5,2.2-1.5,3.5c0,1.4,0.5,2.5,1.5,3.5
		c1,1,2.2,1.5,3.5,1.5S77.6,64.3,78.6,63.3z"/>
</g>
<g>
</g>
<g>
</g>
<g>
</g>
<g>
</g>
<g>
</g>
</svg>
