<svg version="1.1"
     xmlns="http://www.w3.org/2000/svg" 
	 viewBox="0 0 100 100">
	<path d="M88.2,46.7c1,1,1.6,2.1,1.6,3.1s-0.5,2-1.6,3c-1,1-2.5,2-4.3,2.9c-2.1,0.9-4.4,1.6-7,2.2c-2.6,0.5-5.3,0.8-8,0.8H33.3
		c-0.6,0.8-1.2,1.5-2,2h25.6c-3.9,0.8-7.5,2.2-10.7,4.1c-2,1.2-4.5,3-7.5,5.5c-3,2.5-5.4,4.2-7.1,5.1c-2.9,1.5-6.1,2.2-9.6,2.2V61.7
		h-2v15.9c-1.7,0-3.1-0.8-4.2-2.3c-1.2-1.5-1.7-3.4-1.7-5.7v-8c-2.7,0-4-1-4-3v-5c0-2,1.3-3,4-3v-2c-2.7,0-4-1-4-3v-5c0-2,1.3-3,4-3
		v-8c0-2.2,0.6-4.1,1.7-5.7c1.2-1.5,2.6-2.3,4.2-2.3v15.9h2V21.9c3.5,0,6.7,0.7,9.6,2.2c1.7,0.9,4.1,2.6,7.1,5.1
		c3,2.5,5.5,4.3,7.5,5.5c3.2,1.9,6.8,3.3,10.7,4.1H31.3c0.7,0.5,1.4,1.2,2,2h35.6c2.7,0,5.4,0.3,8,0.8c2.6,0.5,5,1.3,7,2.2
		C85.8,44.7,87.2,45.7,88.2,46.7z M73.5,52.2c0.5-1.7,0.5-3.3,0-5c-0.5-1.7-1.4-2.5-2.6-2.5c-0.2,0-0.5,0.1-0.7,0.3
		c-0.2,0.2-0.3,0.4-0.3,0.7v8c0,0.2,0.1,0.5,0.3,0.7c0.2,0.2,0.4,0.3,0.7,0.3C72.1,54.7,73,53.9,73.5,52.2z"/>
</svg>
