<svg version="1.1"
     xmlns="http://www.w3.org/2000/svg" 
	 viewBox="0 0 100 100">
	<path d="M89.2,62.3c0.4,0.4,0.6,0.9,0.6,1.4v4c0,0.6-0.2,1.1-0.6,1.4c-0.4,0.4-0.9,0.6-1.4,0.6h-6c0,3.3-1.2,6.1-3.5,8.5
		c-2.3,2.3-5.1,3.5-8.5,3.5c-3.3,0-6.1-1.2-8.5-3.5c-2.3-2.3-3.5-5.1-3.5-8.5H42c0,3.3-1.2,6.1-3.5,8.5c-2.3,2.3-5.1,3.5-8.5,3.5
		c-3.3,0-6.1-1.2-8.5-3.5c-2.3-2.3-3.5-5.1-3.5-8.5V53.7H37c0.2,0,0.5-0.1,0.7-0.3c0.2-0.2,0.3-0.4,0.3-0.7v-2
		c0-0.2-0.1-0.5-0.3-0.7c-0.2-0.2-0.4-0.3-0.7-0.3H11.1c-0.2,0-0.5-0.1-0.7-0.3c-0.2-0.2-0.3-0.4-0.3-0.7v-2c0-0.2,0.1-0.5,0.3-0.7
		c0.2-0.2,0.4-0.3,0.7-0.3H41c0.2,0,0.5-0.1,0.7-0.3c0.2-0.2,0.3-0.4,0.3-0.7v-2c0-0.2-0.1-0.5-0.3-0.7c-0.2-0.2-0.4-0.3-0.7-0.3
		H15.1c-0.2,0-0.5-0.1-0.7-0.3c-0.2-0.2-0.3-0.4-0.3-0.7v-2c0-0.2,0.1-0.5,0.3-0.7c0.2-0.2,0.4-0.3,0.7-0.3H45
		c0.2,0,0.5-0.1,0.7-0.3c0.2-0.2,0.3-0.4,0.3-0.7v-2c0-0.2-0.1-0.5-0.3-0.7c-0.2-0.2-0.4-0.3-0.7-0.3H11.1c-0.2,0-0.5-0.1-0.7-0.3
		c-0.2-0.2-0.3-0.4-0.3-0.7v-2c0-0.2,0.1-0.5,0.3-0.7c0.2-0.2,0.4-0.3,0.7-0.3h7v-6c0-1.7,0.6-3.1,1.7-4.2c1.2-1.2,2.6-1.7,4.2-1.7
		h31.9c1.7,0,3.1,0.6,4.2,1.7c1.2,1.2,1.7,2.6,1.7,4.2v6h5.5c1.7,0,3.1,0.6,4.2,1.7L84.1,44c1.2,1.2,1.7,2.6,1.7,4.2v13.4h2
		C88.4,61.7,88.9,61.9,89.2,62.3z M34.3,73.9c1.2-1.2,1.7-2.6,1.7-4.2c0-1.7-0.6-3.1-1.7-4.2c-1.2-1.2-2.6-1.7-4.2-1.7
		c-1.7,0-3.1,0.6-4.2,1.7c-1.2,1.2-1.7,2.6-1.7,4.2c0,1.7,0.6,3.1,1.7,4.2c1.2,1.2,2.6,1.7,4.2,1.7C31.7,75.7,33.1,75.1,34.3,73.9z
		 M79.8,48.3L67.4,35.8h-5.5v13.9h17.9V48.3z M74.1,73.9c1.2-1.2,1.7-2.6,1.7-4.2c0-1.7-0.6-3.1-1.7-4.2c-1.2-1.2-2.6-1.7-4.2-1.7
		c-1.7,0-3.1,0.6-4.2,1.7c-1.2,1.2-1.7,2.6-1.7,4.2c0,1.7,0.6,3.1,1.7,4.2c1.2,1.2,2.6,1.7,4.2,1.7C71.5,75.7,73,75.1,74.1,73.9z"/>
</svg>
