<svg version="1.1" xmlns="http://www.w3.org/2000/svg" 
viewBox="0 0 100 100">
	<path d="M77.4,22.4c1.4,1.4,2.2,3.2,2.2,5.2v54.1c0,2.1-0.7,3.8-2.2,5.2c-1.4,1.4-3.2,2.2-5.2,2.2H27.8c-2.1,0-3.8-0.7-5.2-2.2
		c-1.4-1.4-2.2-3.2-2.2-5.2V27.6c0-2.1,0.7-3.8,2.2-5.2c1.4-1.4,3.2-2.2,5.2-2.2h12.3c0-2.7,1-5,2.9-6.9c1.9-1.9,4.3-2.9,6.9-2.9
		c2.7,0,5,1,6.9,2.9c1.9,1.9,2.9,4.3,2.9,6.9h12.3C74.2,20.2,75.9,20.9,77.4,22.4z M37.8,45c0.7-0.7,1.1-1.6,1.1-2.6
		c0-1-0.4-1.9-1.1-2.6c-0.7-0.7-1.6-1.1-2.6-1.1c-1,0-1.9,0.4-2.6,1.1c-0.7,0.7-1.1,1.6-1.1,2.6c0,1,0.4,1.9,1.1,2.6
		c0.7,0.7,1.6,1.1,2.6,1.1C36.3,46,37.1,45.7,37.8,45z M37.8,59.7c0.7-0.7,1.1-1.6,1.1-2.6c0-1-0.4-1.9-1.1-2.6
		c-0.7-0.7-1.6-1.1-2.6-1.1c-1,0-1.9,0.4-2.6,1.1c-0.7,0.7-1.1,1.6-1.1,2.6c0,1,0.4,1.9,1.1,2.6c0.7,0.7,1.6,1.1,2.6,1.1
		C36.3,60.8,37.1,60.5,37.8,59.7z M37.8,74.5c0.7-0.7,1.1-1.6,1.1-2.6c0-1-0.4-1.9-1.1-2.6c-0.7-0.7-1.6-1.1-2.6-1.1
		c-1,0-1.9,0.4-2.6,1.1c-0.7,0.7-1.1,1.6-1.1,2.6c0,1,0.4,1.9,1.1,2.6c0.7,0.7,1.6,1.1,2.6,1.1C36.3,75.6,37.1,75.2,37.8,74.5z
		 M69.7,41.1c0-0.3-0.1-0.6-0.4-0.8c-0.3-0.3-0.5-0.4-0.8-0.4H46.3c-0.3,0-0.6,0.1-0.8,0.4c-0.3,0.3-0.4,0.5-0.4,0.8v2.5
		c0,0.3,0.1,0.6,0.4,0.8c0.3,0.3,0.5,0.4,0.8,0.4h22.1c0.3,0,0.6-0.1,0.8-0.4c0.3-0.3,0.4-0.5,0.4-0.8V41.1z M69.7,55.9
		c0-0.3-0.1-0.6-0.4-0.8c-0.3-0.3-0.5-0.4-0.8-0.4H46.3c-0.3,0-0.6,0.1-0.8,0.4c-0.3,0.3-0.4,0.5-0.4,0.8v2.5c0,0.3,0.1,0.6,0.4,0.8
		c0.3,0.3,0.5,0.4,0.8,0.4h22.1c0.3,0,0.6-0.1,0.8-0.4c0.3-0.3,0.4-0.5,0.4-0.8V55.9z M69.7,70.7c0-0.3-0.1-0.6-0.4-0.8
		c-0.3-0.3-0.5-0.4-0.8-0.4H46.3c-0.3,0-0.6,0.1-0.8,0.4c-0.3,0.3-0.4,0.5-0.4,0.8v2.5c0,0.3,0.1,0.6,0.4,0.8
		c0.3,0.3,0.5,0.4,0.8,0.4h22.1c0.3,0,0.6-0.1,0.8-0.4c0.3-0.3,0.4-0.5,0.4-0.8V70.7z M47.4,17.6c-0.7,0.7-1.1,1.6-1.1,2.6
		c0,1,0.4,1.9,1.1,2.6c0.7,0.7,1.6,1.1,2.6,1.1c1,0,1.9-0.4,2.6-1.1c0.7-0.7,1.1-1.6,1.1-2.6c0-1-0.4-1.9-1.1-2.6
		c-0.7-0.7-1.6-1.1-2.6-1.1C49,16.5,48.1,16.9,47.4,17.6z"/>
</svg>
