<svg version="1.1"  xmlns="http://www.w3.org/2000/svg" 
	 viewBox="0 0 100 100" >
	<path d="M82.6,35H17.4c-0.5,0-0.9-0.2-1.3-0.5c-0.4-0.4-0.5-0.8-0.5-1.3v-5.5c0-2.1,0.7-3.8,2.2-5.2c1.4-1.4,3.2-2.2,5.2-2.2h7.4
		v-8c0-0.5,0.2-0.9,0.5-1.3c0.4-0.4,0.8-0.5,1.3-0.5h6.2c0.5,0,0.9,0.2,1.3,0.5c0.4,0.4,0.5,0.8,0.5,1.3v8h19.7v-8
		c0-0.5,0.2-0.9,0.5-1.3c0.4-0.4,0.8-0.5,1.3-0.5h6.2c0.5,0,0.9,0.2,1.3,0.5c0.4,0.4,0.5,0.8,0.5,1.3v8h7.4c2,0,3.8,0.7,5.2,2.2
		c1.4,1.4,2.2,3.2,2.2,5.2v5.5c0,0.5-0.2,0.9-0.5,1.3C83.6,34.8,83.1,35,82.6,35z M17.4,39.9h65.2c0.5,0,0.9,0.2,1.3,0.5
		c0.4,0.4,0.5,0.8,0.5,1.3v40c0,2.1-0.7,3.8-2.2,5.2c-1.4,1.4-3.2,2.2-5.2,2.2H22.9c-2.1,0-3.8-0.7-5.2-2.2
		c-1.4-1.4-2.2-3.2-2.2-5.2v-40c0-0.5,0.2-0.9,0.5-1.3C16.4,40.1,16.9,39.9,17.4,39.9z M35.2,51.6c0-0.5-0.2-0.9-0.5-1.3
		c-0.4-0.4-0.8-0.5-1.3-0.5h-6.2c-0.5,0-0.9,0.2-1.3,0.5c-0.4,0.4-0.5,0.8-0.5,1.3v6.2c0,0.5,0.2,0.9,0.5,1.3
		c0.4,0.4,0.8,0.5,1.3,0.5h6.2c0.5,0,0.9-0.2,1.3-0.5c0.4-0.4,0.5-0.8,0.5-1.3V51.6z M35.2,71.3c0-0.5-0.2-0.9-0.5-1.3
		c-0.4-0.4-0.8-0.5-1.3-0.5h-6.2c-0.5,0-0.9,0.2-1.3,0.5c-0.4,0.4-0.5,0.8-0.5,1.3v6.2c0,0.5,0.2,0.9,0.5,1.3
		c0.4,0.4,0.8,0.5,1.3,0.5h6.2c0.5,0,0.9-0.2,1.3-0.5c0.4-0.4,0.5-0.8,0.5-1.3V71.3z M54.9,51.6c0-0.5-0.2-0.9-0.5-1.3
		c-0.4-0.4-0.8-0.5-1.3-0.5h-6.2c-0.5,0-0.9,0.2-1.3,0.5c-0.4,0.4-0.5,0.8-0.5,1.3v6.2c0,0.5,0.2,0.9,0.5,1.3
		c0.4,0.4,0.8,0.5,1.3,0.5h6.2c0.5,0,0.9-0.2,1.3-0.5c0.4-0.4,0.5-0.8,0.5-1.3V51.6z M54.9,71.3c0-0.5-0.2-0.9-0.5-1.3
		c-0.4-0.4-0.8-0.5-1.3-0.5h-6.2c-0.5,0-0.9,0.2-1.3,0.5c-0.4,0.4-0.5,0.8-0.5,1.3v6.2c0,0.5,0.2,0.9,0.5,1.3
		c0.4,0.4,0.8,0.5,1.3,0.5h6.2c0.5,0,0.9-0.2,1.3-0.5c0.4-0.4,0.5-0.8,0.5-1.3V71.3z M74.6,51.6c0-0.5-0.2-0.9-0.5-1.3
		c-0.4-0.4-0.8-0.5-1.3-0.5h-6.2c-0.5,0-0.9,0.2-1.3,0.5c-0.4,0.4-0.5,0.8-0.5,1.3v6.2c0,0.5,0.2,0.9,0.5,1.3
		c0.4,0.4,0.8,0.5,1.3,0.5h6.2c0.5,0,0.9-0.2,1.3-0.5c0.4-0.4,0.5-0.8,0.5-1.3V51.6z M74.6,71.3c0-0.5-0.2-0.9-0.5-1.3
		c-0.4-0.4-0.8-0.5-1.3-0.5h-6.2c-0.5,0-0.9,0.2-1.3,0.5c-0.4,0.4-0.5,0.8-0.5,1.3v6.2c0,0.5,0.2,0.9,0.5,1.3
		c0.4,0.4,0.8,0.5,1.3,0.5h6.2c0.5,0,0.9-0.2,1.3-0.5c0.4-0.4,0.5-0.8,0.5-1.3V71.3z"/>
</svg>
