<svg version="1.1" 
     xmlns="http://www.w3.org/2000/svg" 
     viewBox="0 0 100 100">
	<path d="M69.8,19.6c6,2.9,10.8,6.7,14.3,11.6c3.5,4.9,5.3,10.2,5.3,16.1c0,5.8-1.8,11.2-5.3,16.1c-3.5,4.9-8.3,8.7-14.3,11.6
		c-6,2.9-12.6,4.3-19.8,4.3c-5.7,0-11.2-1-16.5-2.9c-2.7,2.1-5.5,3.7-8.5,5.1c-4.3,1.8-8.7,2.8-13.2,2.8c-0.5,0-0.9-0.3-1.1-0.8
		c-0.2-0.5-0.2-1,0.2-1.4c0.9-0.9,2.1-2.4,3.5-4.5c2.5-3.6,4.1-7,4.9-10.2c-2.8-2.9-4.9-6-6.5-9.4c-1.5-3.4-2.3-7-2.3-10.8
		c0-5.8,1.8-11.2,5.3-16.1c3.5-4.9,8.3-8.7,14.3-11.6c6-2.9,12.6-4.3,19.8-4.3C57.2,15.3,63.8,16.7,69.8,19.6z"/>
</svg>
